<?xml version="1.0" encoding="UTF-8"?>
<svg xmlns="http://www.w3.org/2000/svg" viewBox="0 0 800 800" role="img">
  <defs>
    <pattern id="mash" width="56" height="56" patternUnits="userSpaceOnUse">
      <path d="M28 4 L52 28 L28 52 L4 28 Z" fill="none" stroke="#E2C48A" stroke-opacity="0.16" stroke-width="1"/>
      <circle cx="28" cy="28" r="3" fill="#E2C48A" fill-opacity="0.128"/>
    </pattern>
    <filter id="grain">
      <feTurbulence type="fractalNoise" baseFrequency="0.9" numOctaves="3" stitchTiles="stitch" result="n"/>
      <feColorMatrix type="saturate" values="0"/>
      <feComponentTransfer>
        <feFuncA type="table" tableValues="0 0.22"/>
      </feComponentTransfer>
    </filter>
    <radialGradient id="glow" cx="50%" cy="42%" r="55%">
      <stop offset="0%" stop-color="#E2C48A" stop-opacity="0.28"/>
      <stop offset="100%" stop-color="#1F4D3A" stop-opacity="0"/>
    </radialGradient>
  </defs>
  <rect width="800" height="800" fill="#1F4D3A"/>
  <rect width="800" height="800" fill="url(#mash)"/>
  <rect width="800" height="800" filter="url(#grain)"/>
  <rect width="800" height="800" fill="url(#glow)"/>
  <circle cx="400" cy="370" r="210" fill="none" stroke="#E2C48A" stroke-width="1.2" opacity="0.55"/>
  <circle cx="400" cy="370" r="168" fill="#E2C48A" opacity="0.1"/>
  <ellipse cx="400" cy="392" rx="132" ry="118" fill="#E2C48A" opacity="0.22"/>
  <ellipse cx="400" cy="378" rx="108" ry="92" fill="#F6F1E8" opacity="0.08"/>
  <circle cx="438.7" cy="389.8" r="3" fill="#E2C48A" fill-opacity="0.18"/><circle cx="445.4" cy="401.6" r="4" fill="#E2C48A" fill-opacity="0.26"/><circle cx="446.3" cy="415.8" r="5" fill="#E2C48A" fill-opacity="0.33999999999999997"/><circle cx="440.1" cy="431.1" r="6" fill="#E2C48A" fill-opacity="0.42"/><circle cx="426.4" cy="445.9" r="7" fill="#E2C48A" fill-opacity="0.18"/><circle cx="405.5" cy="458.5" r="3" fill="#E2C48A" fill-opacity="0.26"/><circle cx="378.0" cy="467.3" r="4" fill="#E2C48A" fill-opacity="0.33999999999999997"/><circle cx="383.6" cy="405.9" r="5" fill="#E2C48A" fill-opacity="0.42"/><circle cx="367.3" cy="410.7" r="6" fill="#E2C48A" fill-opacity="0.18"/><circle cx="347.5" cy="411.3" r="7" fill="#E2C48A" fill-opacity="0.26"/><circle cx="326.2" cy="406.9" r="3" fill="#E2C48A" fill-opacity="0.33999999999999997"/><circle cx="305.6" cy="397.0" r="4" fill="#E2C48A" fill-opacity="0.42"/><circle cx="288.1" cy="381.9" r="5" fill="#E2C48A" fill-opacity="0.18"/><circle cx="275.9" cy="362.2" r="6" fill="#E2C48A" fill-opacity="0.26"/><circle cx="361.3" cy="366.2" r="7" fill="#E2C48A" fill-opacity="0.33999999999999997"/><circle cx="354.6" cy="354.4" r="3" fill="#E2C48A" fill-opacity="0.42"/><circle cx="353.7" cy="340.2" r="4" fill="#E2C48A" fill-opacity="0.18"/><circle cx="359.9" cy="324.9" r="5" fill="#E2C48A" fill-opacity="0.26"/><circle cx="373.6" cy="310.1" r="6" fill="#E2C48A" fill-opacity="0.33999999999999997"/><circle cx="394.5" cy="297.5" r="7" fill="#E2C48A" fill-opacity="0.42"/><circle cx="422.0" cy="288.7" r="3" fill="#E2C48A" fill-opacity="0.18"/><circle cx="416.4" cy="350.1" r="4" fill="#E2C48A" fill-opacity="0.26"/><circle cx="432.7" cy="345.3" r="5" fill="#E2C48A" fill-opacity="0.33999999999999997"/><circle cx="452.5" cy="344.7" r="6" fill="#E2C48A" fill-opacity="0.42"/><circle cx="473.8" cy="349.1" r="7" fill="#E2C48A" fill-opacity="0.18"/><circle cx="494.4" cy="359.0" r="3" fill="#E2C48A" fill-opacity="0.26"/><circle cx="511.9" cy="374.1" r="4" fill="#E2C48A" fill-opacity="0.33999999999999997"/><circle cx="524.1" cy="393.8" r="5" fill="#E2C48A" fill-opacity="0.42"/>
  <path d="M268 500 C300 548, 500 548, 532 500" fill="none" stroke="#E2C48A" stroke-width="2" opacity="0.45"/>
  <rect x="80" y="80" width="640" height="640" fill="none" stroke="#E2C48A" stroke-opacity="0.28" stroke-width="1"/>
</svg>